<svg width="26" height="39" viewBox="0 0 26 39" fill="none" xmlns="http://www.w3.org/2000/svg">
<path id="Vector" d="M1.47038 11.5C-0.235501 12.7353 -0.353148 13.6176 1.47038 14.9706C2.47038 15.7353 2.41156 15.6176 1.88215 16.7353C0.94097 18.5588 1.17626 19.3823 3.35273 19.7941C4.58803 20.0294 4.52921 19.9706 4.47038 21.2059C4.41156 22.3235 4.47038 23.3823 5.58803 23.5L0.235087 34.3823C0.11744 34.6176 0.176264 34.8529 0.352734 35.0294C0.529205 35.2059 0.764499 35.2647 0.999793 35.2059L5.88215 33.3823L8.35273 37.9706C8.58803 38.4412 9.29391 38.3823 9.41156 37.8529L13.0586 24.3235L16.7057 37.8529C16.8233 38.3823 17.5292 38.4412 17.7645 37.9706L20.2351 33.3823L25.0586 35.2059C25.588 35.3823 25.9998 34.8529 25.7645 34.3823L20.4116 23.5C21.5292 23.3823 21.588 22.3235 21.5292 21.2059C21.4704 19.9706 21.4116 20.0294 22.6469 19.7941C24.8233 19.3823 25.0586 18.5588 24.1174 16.7353C23.941 16.3823 23.6469 15.8529 23.7057 15.6765C23.8821 14.9118 27.7645 13.9118 24.4704 11.5C24.1763 11.2647 23.7057 10.9118 23.7057 10.7941C23.6469 10.6176 23.941 10.0882 24.1174 9.73528C25.0586 7.91175 24.8233 7.08822 22.6469 6.67646C22.2939 6.61764 21.7057 6.49999 21.588 6.32352C21.4704 6.14705 21.4704 5.61764 21.5292 5.20587C21.588 3.20587 21.0586 2.49999 18.8821 3.08822C17.6469 3.44117 17.7057 3.38234 17.2351 2.32352C16.4116 0.499989 15.6469 0.0882241 13.941 1.55881C12.941 2.38234 12.9998 2.38234 12.0586 1.55881C10.3527 0.0882241 9.58803 0.499989 8.7645 2.32352C8.29391 3.44117 8.41156 3.44116 7.11744 3.14705C4.94097 2.55881 4.41156 3.26469 4.47038 5.26469C4.52921 6.49999 4.58803 6.44116 3.35273 6.67646C1.17626 7.08822 0.882146 7.91175 1.88215 9.73528C2.41156 10.8529 2.47038 10.7941 1.47038 11.5ZM8.58803 36.147L6.70568 32.6765L8.47038 27.7941C8.58803 27.5 8.41156 27.147 8.11744 27.0294C7.82332 26.9118 7.47038 27.0882 7.35273 27.3823L5.58803 32.2647L1.94097 33.6176L6.99979 23.3823C7.05862 23.3823 7.05862 23.3823 7.11744 23.3235C8.35273 22.9706 8.29391 23.0294 8.7645 24.0882C9.41156 25.5588 10.1174 26.3235 11.5292 25.3235L8.58803 36.147ZM24.0586 33.6176L20.3527 32.2647L18.3527 27.3823C18.2351 27.0882 17.8821 26.9118 17.588 27.0882C17.2939 27.2059 17.1174 27.5588 17.2939 27.8529L19.2939 32.7353L17.4116 36.2059L14.4704 25.4412C15.8233 26.4412 16.588 25.6765 17.2351 24.2059C17.7645 23.0294 17.6469 23.0882 18.9998 23.4412L24.0586 33.6176ZM2.88215 9.20587C2.29391 8.0294 2.23509 8.08822 3.5292 7.85293C5.35273 7.49999 5.70568 7.14705 5.64685 5.20587C5.58803 3.91175 5.52921 3.91175 6.82332 4.26469C8.70568 4.73528 9.11744 4.44116 9.82332 2.79411C10.3527 1.61764 10.2939 1.55881 11.2939 2.44117C12.7057 3.67646 13.2939 3.67646 14.7057 2.44117C15.7057 1.55881 15.6469 1.55881 16.1763 2.79411C16.8821 4.38234 17.2939 4.73528 19.1763 4.26469C20.4704 3.91175 20.4116 3.97058 20.3527 5.20587C20.3527 5.91175 20.2939 6.61764 20.7057 7.08822C21.1174 7.55881 21.7645 7.67646 22.4704 7.85293C23.7645 8.08822 23.7645 8.0294 23.1174 9.20587C22.8233 9.79411 22.4704 10.4412 22.588 11.0882C22.7057 11.6765 23.2939 12.0882 23.8233 12.5C24.941 13.3235 24.8821 13.2647 23.8233 14.0882C22.3527 15.147 22.2351 15.6765 23.1174 17.3823C23.7057 18.5588 23.7645 18.5 22.4704 18.7353C20.6469 19.0882 20.2939 19.5 20.3527 21.3823C20.3527 21.6765 20.4116 22.3823 20.2939 22.5C20.2351 22.5 20.2939 22.6176 19.1763 22.3235C17.2939 21.8529 16.8821 22.2059 16.1763 23.7941C16.0586 24.0882 15.7645 24.7353 15.588 24.7353C15.5292 24.7353 15.5292 24.7353 15.588 24.7353C15.4116 24.7353 14.941 24.3235 14.7057 24.147C13.1763 22.8529 12.6469 22.9706 11.2939 24.147C10.2939 24.9706 10.3527 24.9706 9.82332 23.7941C9.11744 22.2059 8.70568 21.8529 6.82332 22.3235C5.52921 22.6765 5.58803 22.6765 5.64685 21.3823C5.70568 19.5 5.35273 19.147 3.5292 18.7353C2.23509 18.5 2.23509 18.5588 2.88215 17.3823C3.7645 15.6765 3.58803 15.2059 2.17626 14.0882C1.05862 13.2647 1.11744 13.3235 2.17626 12.5C3.58803 11.3823 3.7645 10.9118 2.88215 9.20587Z" fill="black"/>
</svg>
