<svg width="49" height="49" viewBox="0 0 49 49" fill="none" xmlns="http://www.w3.org/2000/svg">
<g id="Frame" clip-path="url(#clip0_108_223)">
<g id="Group">
<path id="Vector" d="M45.3898 22.1903L44.1468 17.2182C44.4866 17.146 44.7416 16.8445 44.7416 16.4833V15.6817C44.7416 13.9411 43.3255 12.5251 41.5851 12.5251H35.9233V10.8715C35.9233 10.015 35.2266 9.3183 34.3701 9.3183H5.50988C4.65338 9.3183 3.95663 10.015 3.95663 10.8715V24.5C3.95663 24.6993 4.03581 24.8905 4.17676 25.0314C4.31771 25.1724 4.50888 25.2516 4.70822 25.2516C4.90755 25.2516 5.09872 25.1724 5.23968 25.0314C5.38063 24.8905 5.45981 24.6993 5.45981 24.5V10.8715C5.45981 10.8439 5.48222 10.8215 5.50988 10.8215H34.37C34.3976 10.8215 34.42 10.8439 34.42 10.8715V24.5002C34.42 24.6995 34.4992 24.8907 34.6402 25.0316C34.7811 25.1726 34.9723 25.2518 35.1716 25.2518C35.371 25.2518 35.5621 25.1726 35.7031 25.0316C35.844 24.8907 35.9232 24.6995 35.9232 24.5002V23.6482H44.7891L44.791 23.6484L44.7931 23.6483C45.8841 23.649 46.8104 24.3651 47.1286 25.3518H44.7916C44.5923 25.3518 44.4011 25.431 44.2601 25.5719C44.1192 25.7129 44.04 25.9041 44.04 26.1034V27.7067C44.04 29.0052 45.0964 30.0616 46.3949 30.0616H47.2467V33.3685H45.2815C44.636 31.5044 42.864 30.1617 40.7832 30.1617C38.7024 30.1617 36.9304 31.5044 36.2849 33.3685H35.923V27.7066C35.923 27.5073 35.8438 27.3161 35.7029 27.1752C35.5619 27.0342 35.3708 26.955 35.1714 26.955C34.9721 26.955 34.7809 27.0342 34.64 27.1752C34.499 27.3161 34.4198 27.5073 34.4198 27.7066V33.3683H18.8266C18.181 31.5042 16.4091 30.1615 14.3283 30.1615C12.2475 30.1615 10.4754 31.5042 9.82997 33.3683H5.50988C5.4966 33.3683 5.48386 33.363 5.47448 33.3536C5.46509 33.3442 5.45981 33.3315 5.45981 33.3182V31.6647H8.71659C8.91593 31.6647 9.1071 31.5855 9.24805 31.4446C9.389 31.3036 9.46819 31.1125 9.46819 30.9131C9.46819 30.7138 9.389 30.5226 9.24805 30.3817C9.1071 30.2407 8.91593 30.1615 8.71659 30.1615H1.50159C1.30226 30.1615 1.11109 30.2407 0.970137 30.3817C0.829186 30.5226 0.75 30.7138 0.75 30.9131C0.75 31.1125 0.829186 31.3036 0.970137 31.4446C1.11109 31.5855 1.30226 31.6647 1.50159 31.6647H3.95672V33.3182C3.95672 34.1747 4.65347 34.8715 5.50997 34.8715H9.56972C9.56953 34.8881 9.56841 34.9047 9.56841 34.9215C9.56841 37.5461 11.7038 39.6814 14.3283 39.6814C16.9528 39.6814 19.0882 37.5461 19.0882 34.9215C19.0882 34.9046 19.087 34.8881 19.0868 34.8715H36.0247C36.0245 34.8881 36.0233 34.9047 36.0233 34.9215C36.0233 37.5461 38.1587 39.6814 40.7832 39.6814C43.4078 39.6814 45.5431 37.5461 45.5431 34.9215C45.5431 34.9046 45.542 34.8881 45.5418 34.8715H47.9983C48.1976 34.8715 48.3888 34.7923 48.5298 34.6513C48.6707 34.5104 48.7499 34.3192 48.7499 34.1199V26.1032C48.75 24.124 47.2897 22.4795 45.3898 22.1903ZM35.9233 14.0282H41.5851C42.4968 14.0282 43.2385 14.77 43.2385 15.6817V15.7317H35.9233V14.0282ZM35.9233 22.1451V17.2348H42.6016L43.8292 22.1451H35.9233ZM14.3283 38.1785C12.5325 38.1785 11.0715 36.7176 11.0715 34.9217C11.0715 33.1258 12.5325 31.6649 14.3283 31.6649C16.1241 31.6649 17.5851 33.1258 17.5851 34.9217C17.5851 36.7176 16.1241 38.1785 14.3283 38.1785ZM40.7834 38.1785C38.9876 38.1785 37.5266 36.7176 37.5266 34.9217C37.5266 33.1258 38.9876 31.6649 40.7834 31.6649C42.5792 31.6649 44.0402 33.1258 44.0402 34.9217C44.0402 36.7176 42.5792 38.1785 40.7834 38.1785ZM47.2469 28.5584H46.3951C45.9254 28.5584 45.5433 28.1763 45.5433 27.7066V26.8548H47.2468V28.5584H47.2469Z" fill="black"/>
<path id="Vector_2" d="M14.3285 33.3684C13.472 33.3684 12.7752 34.0652 12.7752 34.9217C12.7752 35.7782 13.472 36.4749 14.3285 36.4749C15.185 36.4749 15.8817 35.7782 15.8817 34.9217C15.8817 34.0652 15.185 33.3684 14.3285 33.3684ZM40.7836 33.3684C39.9271 33.3684 39.2304 34.0652 39.2304 34.9217C39.2304 35.7782 39.9271 36.4749 40.7836 36.4749C41.6401 36.4749 42.3369 35.7782 42.3369 34.9217C42.3369 34.0652 41.6401 33.3684 40.7836 33.3684ZM31.9652 30.1618H20.7418C20.5425 30.1618 20.3513 30.241 20.2104 30.382C20.0694 30.5229 19.9902 30.7141 19.9902 30.9134C19.9902 31.1127 20.0694 31.3039 20.2104 31.4449C20.3513 31.5858 20.5425 31.665 20.7418 31.665H31.9652C32.1645 31.665 32.3557 31.5858 32.4967 31.4449C32.6376 31.3039 32.7168 31.1127 32.7168 30.9134C32.7168 30.7141 32.6376 30.5229 32.4967 30.382C32.3557 30.241 32.1645 30.1618 31.9652 30.1618ZM12.7252 26.9551H3.10511C2.90577 26.9551 2.7146 27.0343 2.57365 27.1752C2.4327 27.3162 2.35352 27.5074 2.35352 27.7067C2.35352 27.906 2.4327 28.0972 2.57365 28.2381C2.7146 28.3791 2.90577 28.4583 3.10511 28.4583H12.7252C12.9245 28.4583 13.1157 28.3791 13.2566 28.2381C13.3976 28.0972 13.4768 27.906 13.4768 27.7067C13.4768 27.5074 13.3976 27.3162 13.2566 27.1752C13.1157 27.0343 12.9245 26.9551 12.7252 26.9551ZM26.885 16.7534C26.744 16.6125 26.5529 16.5333 26.3535 16.5334C26.1542 16.5334 25.9631 16.6126 25.8221 16.7535L19.1385 23.437L15.6616 19.9601C15.5918 19.8903 15.509 19.835 15.4178 19.7972C15.3266 19.7594 15.2289 19.74 15.1302 19.74C15.0315 19.74 14.9338 19.7594 14.8426 19.7972C14.7514 19.835 14.6685 19.8903 14.5988 19.9601C14.529 20.0299 14.4736 20.1128 14.4358 20.2039C14.3981 20.2951 14.3786 20.3929 14.3786 20.4916C14.3786 20.5902 14.3981 20.688 14.4358 20.7792C14.4736 20.8703 14.529 20.9532 14.5988 21.023L18.6071 25.0313C18.7539 25.1782 18.9462 25.2515 19.1385 25.2515C19.3308 25.2515 19.5233 25.1782 19.6699 25.0313L26.8849 17.8163C27.0258 17.6754 27.105 17.4842 27.105 17.2849C27.1051 17.0856 27.0259 16.8944 26.885 16.7534Z" fill="black"/>
</g>
</g>
<defs>
<clipPath id="clip0_108_223">
<rect width="48" height="48" fill="white" transform="translate(0.75 0.5)"/>
</clipPath>
</defs>
</svg>
