<svg width="41" height="41" viewBox="0 0 41 41" fill="none" xmlns="http://www.w3.org/2000/svg">
<g id="Frame">
<g id="Group">
<path id="Vector" d="M20.4747 32.3081C20.5714 32.3082 20.6669 32.2857 20.7534 32.2425L30.7309 27.2538C30.8344 27.2019 30.9214 27.1223 30.9822 27.0239C31.043 26.9254 31.0753 26.812 31.0753 26.6963V20.76C31.0702 20.5981 31.0022 20.4445 30.8859 20.3318C30.7695 20.219 30.6139 20.156 30.4519 20.156C30.2899 20.156 30.1342 20.219 30.0178 20.3318C29.9015 20.4445 29.8336 20.5981 29.8284 20.76V26.3106L21.0984 30.6756V20.7188L22.5278 22.1481C22.6203 22.2408 22.7396 22.302 22.8688 22.3231C22.9981 22.3442 23.1306 22.3241 23.2478 22.2656L33.2253 17.2769C33.3138 17.2328 33.3904 17.1682 33.449 17.0886C33.5076 17.009 33.5464 16.9166 33.5622 16.819C33.578 16.7214 33.5704 16.6215 33.54 16.5274C33.5095 16.4334 33.4572 16.3479 33.3872 16.2781L30.8934 13.7838C30.8447 13.7378 30.79 13.6985 30.7309 13.6669L20.7534 8.67814C20.6669 8.63494 20.5714 8.61246 20.4747 8.61246C20.3779 8.61246 20.2825 8.63494 20.1959 8.67814L10.2184 13.6669C10.1593 13.6985 10.1047 13.7378 10.0559 13.7838L7.56218 16.2775C7.49209 16.3474 7.43964 16.4329 7.40918 16.527C7.37871 16.6212 7.3711 16.7212 7.38698 16.8189C7.40287 16.9166 7.44178 17.009 7.5005 17.0887C7.55922 17.1683 7.63607 17.2328 7.72468 17.2769L17.7016 22.2656C17.8186 22.324 17.9511 22.344 18.0802 22.3229C18.2093 22.3018 18.3285 22.2407 18.4209 22.1481L19.8509 20.7188V30.675L11.1209 26.31V20.7594C11.1158 20.5975 11.0479 20.4439 10.9315 20.3311C10.8152 20.2184 10.6595 20.1554 10.4975 20.1554C10.3355 20.1554 10.1798 20.2184 10.0635 20.3311C9.94711 20.4439 9.87918 20.5975 9.87405 20.7594V26.6956C9.87409 26.8114 9.90632 26.9248 9.96713 27.0233C10.028 27.1217 10.115 27.2013 10.2184 27.2531L20.1959 32.2419C20.2825 32.2851 20.3779 32.3075 20.4747 32.3075V32.3081ZM31.8934 16.5475L23.0922 20.9488L21.5272 19.3844L30.3291 14.9831L31.8934 16.5475ZM17.8572 20.9488L9.05593 16.5475L10.6203 14.9831L19.4222 19.3844L17.8572 20.9488ZM11.8922 14.2244L20.4747 9.93314L29.0572 14.225L20.4747 18.5169L11.8922 14.2244Z" fill="black"/>
<path id="Vector_2" d="M33.6683 9.03126L34.632 9.15001C34.7933 9.16467 34.954 9.116 35.0801 9.01431C35.2062 8.91261 35.2877 8.76587 35.3075 8.60511C35.3273 8.44435 35.2838 8.2822 35.1862 8.15294C35.0886 8.02368 34.9446 7.93746 34.7845 7.91251L32.397 7.61876C32.3157 7.60794 32.233 7.61345 32.1538 7.63498C32.0746 7.65651 32.0005 7.69362 31.9359 7.74414C31.8712 7.79466 31.8173 7.85758 31.7772 7.9292C31.7372 8.00082 31.7118 8.07972 31.7026 8.16126L31.4089 10.5488C31.3946 10.7099 31.4435 10.8703 31.5453 10.9961C31.647 11.1218 31.7937 11.2031 31.9542 11.2228C32.1148 11.2425 32.2767 11.1991 32.4059 11.1017C32.535 11.0042 32.6213 10.8604 32.6464 10.7006L32.7476 9.87376C41.7914 20.2325 34.242 36.7263 20.4739 36.6738C17.3059 36.6764 14.2069 35.7482 11.562 34.0044C11.4937 33.9594 11.4171 33.9283 11.3367 33.9128C11.2563 33.8974 11.1737 33.898 11.0935 33.9145C11.0133 33.931 10.9372 33.9631 10.8694 34.0091C10.8016 34.055 10.7436 34.1138 10.6986 34.1822C10.6536 34.2506 10.6225 34.3271 10.607 34.4075C10.5916 34.4879 10.5922 34.5706 10.6087 34.6507C10.6252 34.7309 10.6573 34.8071 10.7033 34.8748C10.7492 34.9426 10.808 35.0006 10.8764 35.0456C27.8701 45.9131 46.637 24.4281 33.6683 9.03126ZM8.88577 29.6294C8.80399 29.6212 8.7214 29.6296 8.64287 29.6538C8.56435 29.6781 8.49149 29.7179 8.42857 29.7708C8.36566 29.8237 8.31398 29.8886 8.27657 29.9618C8.23917 30.035 8.21679 30.1149 8.21077 30.1969L8.14327 30.9819C-3.7561 16.6494 13.6764 -3.14186 29.3858 6.91689C29.5239 7.00374 29.6906 7.033 29.8501 6.99838C30.0096 6.96377 30.1491 6.86803 30.2388 6.73172C30.3285 6.5954 30.3612 6.42936 30.3299 6.2692C30.2986 6.10904 30.2058 5.96753 30.0714 5.87501C27.2231 3.99676 23.8857 2.997 20.4739 3.00001C5.75077 2.94376 -2.4136 20.4894 7.10452 31.6856L6.22077 31.5625C6.0592 31.5441 5.89685 31.5896 5.7683 31.6892C5.63976 31.7888 5.55519 31.9346 5.53261 32.0957C5.51004 32.2567 5.55124 32.4202 5.64745 32.5513C5.74366 32.6824 5.88725 32.7707 6.04765 32.7975L8.5489 33.1481C8.63268 33.1594 8.71787 33.1535 8.79935 33.131C8.88083 33.1085 8.95692 33.0698 9.02306 33.0171C9.08919 32.9645 9.14401 32.899 9.18421 32.8246C9.22442 32.7503 9.24918 32.6686 9.25702 32.5844L9.45327 30.305C9.46039 30.2234 9.45135 30.1412 9.42668 30.0631C9.402 29.985 9.36217 29.9126 9.30946 29.8499C9.25675 29.7872 9.1922 29.7355 9.1195 29.6978C9.0468 29.66 8.96738 29.637 8.88577 29.63V29.6294Z" fill="black"/>
</g>
</g>
</svg>
